# xmcd
#
# Track frame offsets:
#	150
#	14349
#	29324
#	58566
#	80336
#	105387
#	126298
#	143323
#	161269
#	184755
#	202331
#	217795
#	240558
#	264334
#	288219
#	309140
#	327275
#	345931
#
# Disc length: 4775 seconds
#
# Revision: 0
# Processed by: cddbd v1.5.2PL0 Copyright (c) Steve Scherf et al.
# Submitted via: EZCDAudioConverter 5.0.0.1
#
DISCID=e512a512
DTITLE=Varios - Lo Mejor De Las Bailaditas
DYEAR=1900
DGENRE=
TTITLE0=Tilsa Lozano and DJ Peligro - Soy soltera
TTITLE1=La Fabri-K - Festroni-K
TTITLE2=Nene Malo - El Garrote, Bailan Rochas Y Chetas, Que se saque todo, Cóm
TTITLE2=o me gusta la noche, Es un secreto
TTITLE3=Michel Robles - Lo que un día fue no será
TTITLE4=N'Samble - Hoy he vuelto a ver el amor
TTITLE5=Galé - El amor de mi vida "Se Fue"
TTITLE6=Corazón Serrano - Muriendo de amor
TTITLE7=Orq. Candela - Esta noche
TTITLE8=Agua Bella - Guarachas Mix (Quiero amanecer, Comentario en el solar, D
TTITLE8=on José)
TTITLE9=Aventura - Mi corazoncito
TTITLE10=Alma bella - Bonbom asesino
TTITLE11=Binomio De Oro - Olvídala
TTITLE12=Charanga Habanera - Gozando en la Habana
TTITLE13=Vernis Hernández - Si estuvieras aquí
TTITLE14=Maelo Ruíz - Este amor
TTITLE15=Agua Marina - Esta vez me enamoré
TTITLE16=Corazón Serrano - El estúpido
TTITLE17=Corazón Serrano - Cuatro mentiras
EXTD=
EXTT0=
EXTT1=
EXTT2=
EXTT3=
EXTT4=
EXTT5=
EXTT6=
EXTT7=
EXTT8=
EXTT9=
EXTT10=
EXTT11=
EXTT12=
EXTT13=
EXTT14=
EXTT15=
EXTT16=
EXTT17=
PLAYORDER=
